<svg version="1" xmlns="http://www.w3.org/2000/svg" width="1922" height="1082" viewBox="0 0 1922.000000 1082.000000"><path d="M0 541v541h1922V0H0v541zM557 22c0 .5-.4 1-1 1-.5 0-1-.5-1-1 0-.6.5-1 1-1 .6 0 1 .4 1 1zm107 .4c0 .2-.7.9-1.5 1.6-1.3 1.1-1.4 1-.9-.4.5-1.4 2.4-2.3 2.4-1.2zm-171 2.5c0 1.2-2.9 3.5-3.6 2.8-1.1-1 .5-3.7 2.1-3.7.8 0 1.5.4 1.5.9zm1247.7 26.7c-.3.3-1.2.4-1.9.1-.8-.3-.5-.6.6-.6 1.1-.1 1.7.2 1.3.5zM719 53c0 .5-.4 1-1 1-.5 0-1-.5-1-1 0-.6.5-1 1-1 .6 0 1 .4 1 1zm30 16c0 .5-.4 1-1 1-.5 0-1-.5-1-1 0-.6.5-1 1-1 .6 0 1 .4 1 1zm412.9-.6c-.2.2-1.4.9-2.6 1.5-1.9 1-2.3.9-2.3-.4 0-1 .9-1.5 2.7-1.5 1.4 0 2.4.2 2.2.4zM649 70c0 .5-.2 1-.4 1-.3 0-.8-.5-1.1-1-.3-.6-.1-1 .4-1 .6 0 1.1.4 1.1 1zm474 34c0 .5-.4 1-1 1-.5 0-1-.5-1-1 0-.6.5-1 1-1 .6 0 1 .4 1 1zm-540.2 6.5c-2.5 3.9-4.4 4.8-2.5 1.2 2-3.8 2.8-4.7 3.8-4.7.5 0-.1 1.6-1.3 3.5zm97 7.4c.3.8-.1 1.2-.9.9-.7-.2-1.5-1-1.7-1.7-.3-.8.1-1.2.9-.9.7.2 1.5 1 1.7 1.7zm62.9.3c-.3.8-.6.5-.6-.6-.1-1.1.2-1.7.5-1.3.3.3.4 1.2.1 1.9zm720.8 5.8c.3.5.1 1-.4 1-.6 0-1.1-.5-1.1-1 0-.6.2-1 .4-1 .3 0 .8.4 1.1 1zM1000 136c0 .5-.4 1-.9 1-.6 0-1.3-.5-1.6-1-.3-.6.1-1 .9-1 .9 0 1.6.4 1.6 1zm-289 1.4c0 .2-.7.6-1.5 1-.8.3-1.5.1-1.5-.4 0-.6.7-1 1.5-1s1.5.2 1.5.4zm620 3.6c0 .5-.4 1-1 1-.5 0-1-.5-1-1 0-.6.5-1 1-1 .6 0 1 .4 1 1zm-551 10.2c0 1.6-.3 1.9-1.1 1.1-.6-.6-.8-1.6-.5-2.2 1.1-1.7 1.6-1.3 1.6 1.1zM378 163c0 .5-.4 1-1 1-.5 0-1-.5-1-1 0-.6.5-1 1-1 .6 0 1 .4 1 1zm519 7.8c0 1.2-5.9 3.4-7.5 2.8-2.2-.8-1.8-2.4.8-2.9 3.9-.7 6.7-.7 6.7.1zm-144.5 7.1c.3.5.1 1.2-.5 1.6-.5.3-1-.1-1-.9 0-1.8.6-2.1 1.5-.7zM871 188c0 .5-.4 1-1 1-.5 0-1-.5-1-1 0-.6.5-1 1-1 .6 0 1 .4 1 1zm898 2c0 .5-.7 1-1.5 1s-1.5-.5-1.5-1c0-.6.7-1 1.5-1s1.5.4 1.5 1zm-882.5 6c.3.5-.1 1-.9 1s-1.8-.5-2.1-1c-.3-.6.1-1 .9-1s1.8.4 2.1 1zm462.5 4.4c0 .3-.4.8-1 1.1-.5.3-1 .1-1-.4 0-.6.5-1.1 1-1.1.6 0 1 .2 1 .4zM841 204c0 .5-.2 1-.4 1-.3 0-.8-.5-1.1-1-.3-.6-.1-1 .4-1 .6 0 1.1.4 1.1 1zm124 1.5c1.4 1.6 1 1.8-1.4.9-.9-.3-1.6-1-1.6-1.5 0-1.4 1.6-1.1 3 .6zm-224 3.9c0 .5-.7.1-1.5-1-.8-1-1.4-2.4-1.4-2.9 0-.6.6-.1 1.4.9.8 1.1 1.5 2.4 1.5 3zm366.8-.8c2.2 1 3.1 1.8 2.4 2.1-.8.3-1.9 0-2.5-.6-.6-.6-1.9-1.1-2.9-1.1s-1.8-.5-1.8-1c0-1.3.4-1.3 4.8.6zm-12.5.1c-.7.2-1.9.2-2.5 0-.7-.3-.2-.5 1.2-.5s1.9.2 1.3.5zM822.5 210c.3.5.1 1-.4 1-.6 0-1.1-.5-1.1-1 0-.6.2-1 .4-1 .3 0 .8.4 1.1 1zm293 2c.3.5-.1 1-.9 1s-1.8-.5-2.1-1c-.3-.6.1-1 .9-1s1.8.4 2.1 1zm-88.5 4.4c0 .6-.7.1-1.5-1-.8-1-1.5-2.3-1.5-2.8 0-.6.7-.1 1.5 1 .8 1 1.5 2.3 1.5 2.8zm92.7-2.8c-.3.3-1.2.4-1.9.1-.8-.3-.5-.6.6-.6 1.1-.1 1.7.2 1.3.5zM937 215c0 .5-.5 1-1.1 1-.5 0-.7-.5-.4-1 .3-.6.8-1 1.1-1 .2 0 .4.4.4 1zm186.5 0c.3.5-.1 1-.9 1-.9 0-1.6-.5-1.6-1 0-.6.4-1 .9-1 .6 0 1.3.4 1.6 1zm323 .9c.6 1.1-2.9 3.4-3.8 2.5-.3-.3-.3-1.2 0-2 .6-1.6 2.9-1.9 3.8-.5zM1128 217c0 .5-.4 1-.9 1-.6 0-1.3-.5-1.6-1-.3-.6.1-1 .9-1 .9 0 1.6.4 1.6 1zm3.7 1.6c-.3.3-1.2.4-1.9.1-.8-.3-.5-.6.6-.6 1.1-.1 1.7.2 1.3.5zm-225.2 2.3c-.3.6-1.1 1.1-1.7 1.1-.6 0-.6-.6.2-1.5 1.4-1.7 2.6-1.3 1.5.4zM1155 222c0 .5-.9 1-2 1s-2-.5-2-1c0-.6.9-1 2-1s2 .4 2 1zm-240 13.4c0 1.1-1.9 1.5-2.5.6-.3-.5.1-1 .9-1 .9 0 1.6.2 1.6.4zm535.7 20.2c.2.6-.6 1.4-1.8 1.7-1.8.5-2 1-1.4 3.6.4 2 .3 3.1-.4 3.1-.6 0-1.1-.7-1.1-1.5 0-1-1-1.5-3-1.5-4 0-3.8-1.4.8-4.5 3.8-2.6 6.2-2.9 6.9-.9zm-1.2 12.3c.3.5.1 1.2-.5 1.6-.5.3-1-.1-1-.9 0-1.8.6-2.1 1.5-.7zM700 270.4c0 .3-.4.8-1 1.1-.5.3-1 .1-1-.4 0-.6.5-1.1 1-1.1.6 0 1 .2 1 .4zm124.5 1.6c1.8.8 1.7.9-.7.9-1.6.1-2.8-.4-2.8-.9 0-1.2.8-1.2 3.5 0zm298.2 2.6c-.3.3-1.2.4-1.9.1-.8-.3-.5-.6.6-.6 1.1-.1 1.7.2 1.3.5zM922 277c0 .5-.5 1-1.1 1-.5 0-.7-.5-.4-1 .3-.6.8-1 1.1-1 .2 0 .4.4.4 1zm78 2.8c0 .5-.6 1.7-1.4 2.8-1.9 2.5-3.1 1.2-1.4-1.5 1.3-2.1 2.8-2.8 2.8-1.3zm-7.3 4.8c-.9.9-2.8-.6-2.1-1.8.4-.6 1-.6 1.7.1.6.6.8 1.3.4 1.7zm13.5-1c-2.4 1.7-3.9 1.4-2.7-.5.3-.6 1.6-1.1 2.8-1.1h2.1l-2.2 1.6zM387 284.9c0 1.2-2 2.5-2.7 1.8-.7-.7.6-2.7 1.8-2.7.5 0 .9.4.9.9zm681 .1c0 .5-.4 1-1 1-.5 0-1-.5-1-1 0-.6.5-1 1-1 .6 0 1 .4 1 1zm-627.2 14.9c.4 2.3-.3 2.6-2.1 1.1-.7-.6-2.1-1.7-3.2-2.5-1.7-1.3-1.8-1.6-.5-2.4 2-1.3 5.4.9 5.8 3.8zm391.2.1c0 .5-.4 1-1 1-.5 0-1-.5-1-1 0-.6.5-1 1-1 .6 0 1 .4 1 1zm153 5.4c0 .8.6 1.6 1.3 1.9.6.2.9.8.5 1.2-.4.4-1.4.2-2.3-.5-1.7-1.4-2-4-.5-4 .6 0 1 .6 1 1.4zm44.2 4.8c-.9.9-1.5.9-2.4 0-.9-.9-.7-1.2 1.2-1.2s2.1.3 1.2 1.2zm-337.7.8c.3.5.1 1-.4 1-.6 0-1.1-.5-1.1-1 0-.6.2-1 .4-1 .3 0 .8.4 1.1 1zm633.5 5c0 .5-.4 1-1 1-.5 0-1-.5-1-1 0-.6.5-1 1-1 .6 0 1 .4 1 1zm-323 8.2c2.7 2.9 5 5.6 5 6 0 1.2-1.4 1-3.1-.5-1.9-1.5-7.9-9.2-7.9-10.1 0-1.4 1.3-.3 6 4.6zm-127.2 4.1c.2 2.5-.2 3.6-1.5 4.1-1 .3-2.3.8-2.9 1.1-1.5.7-3.8-4.5-2.5-5.8 1.3-1.3 5.5-3.4 6.1-3.1.3.1.7 1.8.8 3.7zm56.7-2.3c.3.5-.1 1-.9 1-.9 0-1.6-.5-1.6-1 0-.6.4-1 .9-1 .6 0 1.3.4 1.6 1zm164 9c.3.5.1 1-.4 1-.6 0-1.1-.5-1.1-1 0-.6.2-1 .4-1 .3 0 .8.4 1.1 1zM822 339.8c0 1-4.5 3.2-6.5 3.2-.8 0-1.5-.5-1.5-1 0-.6 1.3-1 2.9-1 1.7 0 3.3-.5 3.6-1 .8-1.2 1.5-1.3 1.5-.2zm174.5 2c-.7.8-3.5-.7-3.5-1.8 0-.6.7-.6 2 .2 1 .7 1.7 1.4 1.5 1.6zM1554 343c0 .5-.7 1-1.6 1-.8 0-1.2-.5-.9-1 .3-.6 1-1 1.6-1 .5 0 .9.4.9 1zm-901 1c0 .5-.4 1-1 1-.5 0-1-.5-1-1 0-.6.5-1 1-1 .6 0 1 .4 1 1zm400 .6c0 .8-.4 1.2-1 .9-.5-.3-1-1-1-1.6 0-.5.5-.9 1-.9.6 0 1 .7 1 1.6zm-33.6 1.9c1.5.8 3.6 1.5 4.5 1.5 1.4 0 1.4.2.1 1-.8.5-2.4.7-3.5.4-4.6-1.2-7.4-2.7-6.9-3.5.8-1.3 2.5-1.1 5.8.6zm225.6 3.1c0 .8-.4 1.2-1 .9-.5-.3-1-1-1-1.6 0-.5.5-.9 1-.9.6 0 1 .7 1 1.6zM445 351c.8.5 1.1 1.2.8 1.6-1 .9-3.8-.3-3.8-1.6 0-1.2 1-1.3 3 0zm-216 3.1c0 1.7-.4 2.8-1 2.4-.5-.3-1-1.7-1-3.1 0-1.3.5-2.4 1-2.4.6 0 1 1.4 1 3.1zm695-2.2c0 .5-.7 1.1-1.5 1.5-.9.3-1.5 0-1.5-.9 0-.8.7-1.5 1.5-1.5s1.5.4 1.5.9zm665 2.6c2.2 2.6-.4 4.3-3 2-2-1.8-1.8-3.5.4-3.5.8 0 1.9.7 2.6 1.5zm-527 1.6c0 1.8-.2 1.9-1.5.9-.8-.7-1.5-1.6-1.5-2.1s.7-.9 1.5-.9c.9 0 1.5.9 1.5 2.1zm-391.5 2.2c2.2.3 1.7.4-1.7.6-4.5.1-5.8-.6-4.1-2.2.3-.4 1.1-.3 1.7.2.6.5 2.5 1.1 4.1 1.4zm30.5.1c0 1.1-1.9 1.5-2.5.6-.3-.5.1-1 .9-1 .9 0 1.6.2 1.6.4zm332.6 2c1.8 1.9 1.8 2.6-.1 2.6-.8 0-1.5-.2-1.5-.4s-.3-1.1-.6-2c-.8-2 .3-2.1 2.2-.2zm-444.9.2c-.3.3-1.2.4-1.9.1-.8-.3-.5-.6.6-.6 1.1-.1 1.7.2 1.3.5zm163.3.4c.8.5 1.1 1.2.8 1.6-1 .9-3.8-.3-3.8-1.6 0-1.2 1-1.3 3 0zm349.4 6.6c.9.3 1.6 1 1.6 1.6 0 .5-.6.5-1.6 0-.9-.5-2.6-.7-3.7-.4-1.4.3-1.8.1-1.3-.6.8-1.3 2.6-1.5 5-.6zm11.6 1.5c0 .5-.4.9-1 .9-.5 0-1-.7-1-1.6 0-.8.5-1.2 1-.9.6.3 1 1 1 1.6zm517.5-.1c.3.5.1 1-.4 1-.6 0-1.1-.5-1.1-1 0-.6.2-1 .4-1 .3 0 .8.4 1.1 1zM828 371.9c0 1.2-2 2.5-2.7 1.8-.7-.7.6-2.7 1.8-2.7.5 0 .9.4.9.9zm301.2 4.3c-1 1-4.4 0-3.7-1.2.3-.5 1.4-.6 2.6-.3 1.2.3 1.7.9 1.1 1.5zm-48.2-.8c0 .3-.4.8-1 1.1-.5.3-1 .1-1-.4 0-.6.5-1.1 1-1.1.6 0 1 .2 1 .4zM688 379c0 .5-.4 1-1 1-.5 0-1-.5-1-1 0-.6.5-1 1-1 .6 0 1 .4 1 1zm339.5-.1c.3.5.1 1.2-.5 1.6-.5.3-1-.1-1-.9 0-1.8.6-2.1 1.5-.7zm23.9 3.3c2.5 5 1.8 5.7-.9.9-1.4-2.3-2.5-4.5-2.5-4.8 0-1.2 2 1.1 3.4 3.9zm632.6-3.8c0 1.1-1.9 1.5-2.5.6-.3-.5.1-1 .9-1 .9 0 1.6.2 1.6.4zm-339 2.6c0 .5-.4 1-1 1-.5 0-1-.5-1-1 0-.6.5-1 1-1 .6 0 1 .4 1 1zm-358.5 1c.3.5-.1 1-.9 1-.9 0-1.6-.5-1.6-1 0-.6.4-1 .9-1 .6 0 1.3.4 1.6 1zm409.2 2.2c-.3.7-.5.2-.5-1.2s.2-1.9.5-1.3c.2.7.2 1.9 0 2.5zm-90.7 1.9c0 1.4-1.6 1.1-2.9-.5-1-1.2-.8-1.3.8-.9 1.2.3 2.1.9 2.1 1.4zm-128.5 3c1.6 1.6-3.9.9-6-.7-1.9-1.5-1.8-1.6 1.5-.9 1.9.4 3.9 1.1 4.5 1.6zm297.5.1c0 .6-.6.5-1.5-.2-.8-.7-1.5-1.4-1.5-1.6 0-.2.7-.1 1.5.2.8.4 1.5 1.1 1.5 1.6zm-255.7 1.5c-.7.2-1.9.2-2.5 0-.7-.3-.2-.5 1.2-.5s1.9.2 1.3.5zm285.7.3c0 .5-.2 1-.4 1-.3 0-.8-.5-1.1-1-.3-.6-.1-1 .4-1 .6 0 1.1.4 1.1 1zm-12 2.5c0 .8-.4 1.5-1 1.5-.5 0-1-.7-1-1.5s.5-1.5 1-1.5c.6 0 1 .7 1 1.5zm-428.2 3.1c-.4.3-1.2-.5-1.8-1.8-1.2-2.2-1.2-2.2.6-.6 1 1 1.5 2 1.2 2.4zm-331.7 3c1.1 3 .7 3.9-1.6 3.1-1.7-.7-2.1-5.7-.5-5.7.6 0 1.5 1.2 2.1 2.6zm212.9 1.3c-.6 1.2-1.5 2.1-2.1 2.1-1 0-.5-1.3 1.4-3.8 1.5-1.9 2-.7.7 1.7zm123.8.3c.7.7 1.2 1.8 1.2 2.5 0 1.1-.5 1.1-2 .3-1.1-.6-2-1.7-2-2.5 0-1.8 1.2-1.9 2.8-.3zm433.9 1.4c-.3.3-1.2.4-1.9.1-.8-.3-.5-.6.6-.6 1.1-.1 1.7.2 1.3.5zm-270.4 2.1c-.7.2-1.9.2-2.5 0-.7-.3-.2-.5 1.2-.5s1.9.2 1.3.5zM605 408.1c0 1.4-.7 1.9-3 1.9-3.4 0-4.1-2.3-1.3-3.8 2.3-1.3 4.3-.4 4.3 1.9zm632-2.1c0 .5-.2 1-.4 1-.3 0-.8-.5-1.1-1-.3-.6-.1-1 .4-1 .6 0 1.1.4 1.1 1zm-477 1.5c0 .8-.4 1.5-.9 1.5-1.3 0-2.2-1.6-1.4-2.4 1.1-1.1 2.3-.6 2.3.9zm490.6 1.4c-.4.6-1.7 1.1-2.8 1.1-2.1 0-2.1 0-.2-1.9 1.9-1.9 4.2-1.2 3 .8zm-365.4-.2c2 1.8 2.4 4.3.8 4.3-.6 0-2.2-.7-3.6-1.6-1.9-1.3-2.2-2-1.3-3 1.5-1.8 1.9-1.8 4.1.3zm190.6-.5c.7.7 1.2 1.9 1.2 2.7 0 1.1-.4 1-2-.4-2.1-1.9-2.6-3.5-1.2-3.5.4 0 1.3.5 2 1.2zM612 410c0 .5-.2 1-.4 1-.3 0-.8-.5-1.1-1-.3-.6-.1-1 .4-1 .6 0 1.1.4 1.1 1zm526 3c0 .5-.2 1-.4 1-.3 0-.8-.5-1.1-1-.3-.6-.1-1 .4-1 .6 0 1.1.4 1.1 1zm-492 4.8c0 .5-1.2 1.4-2.7 2.1-2.8 1.3-2.8 1.3-.9-.8 2-2.2 3.6-2.7 3.6-1.3zm387.6 2c-2.2.5-3-.3-2.1-1.8.5-.8 1.1-.7 2.2.2 1.5 1.2 1.4 1.3-.1 1.6zm275.1-.6c-.3.8-.6.5-.6-.6-.1-1.1.2-1.7.5-1.3.3.3.4 1.2.1 1.9zm-87.7 3.9c0 1.1-.4 1.7-1 1.4-.5-.3-1-1.3-1-2.1s.5-1.4 1-1.4c.6 0 1 .9 1 2.1zM908.5 426c-.3.5-1 1-1.6 1-.5 0-.9-.5-.9-1 0-.6.7-1 1.6-1 .8 0 1.2.4.9 1zm182 .8c2.5 1.7 8.7 10.2 8.3 11.4-.2.6-2.4-1.5-4.9-4.8-2.4-3.2-4.8-6.2-5.4-6.6-.7-.5-.7-.8 0-.8.6 0 1.5.4 2 .8zm220.5.2c0 .5-.4 1-1 1-.5 0-1-.5-1-1 0-.6.5-1 1-1 .6 0 1 .4 1 1zm-822 1c0 .5-.4 1-1 1-.5 0-1-.5-1-1 0-.6.5-1 1-1 .6 0 1 .4 1 1zm731 1.4c0 1.1-1.9 1.5-2.5.6-.3-.5.1-1 .9-1 .9 0 1.6.2 1.6.4zm-550 3c0 1.1-1.9 1.5-2.5.6-.3-.5.1-1 .9-1 .9 0 1.6.2 1.6.4zm624 2.6c-2 1.2-3.3.1-1.9-1.6.9-1.1 1.5-1.2 2.3-.4.8.8.7 1.3-.4 2zm-390-.6c0 .3-.4.8-1 1.1-.5.3-1 .1-1-.4 0-.6.5-1.1 1-1.1.6 0 1 .2 1 .4zm-498.8 3.8c-1.5 1.5-2.6.4-1.8-1.8.5-1.3.9-1.5 1.8-.6s.9 1.5 0 2.4zM950 438c0 .5-.4 1-1 1-.5 0-1-.5-1-1 0-.6.5-1 1-1 .6 0 1 .4 1 1zm-519 .9c0 1.2-2 2.5-2.7 1.8-.7-.7.6-2.7 1.8-2.7.5 0 .9.4.9.9zm420.6 2.8c-1 1-1.9-.5-1-1.8.6-1.1.8-1.1 1.2 0 .2.7.1 1.5-.2 1.8zM1038 440c0 .5-.4 1-.9 1-.6 0-1.3-.5-1.6-1-.3-.6.1-1 .9-1 .9 0 1.6.4 1.6 1zm65.5 3c.3.5.1 1-.4 1-.6 0-1.1-.5-1.1-1 0-.6.2-1 .4-1 .3 0 .8.4 1.1 1zm-367 2c.3.5.1 1-.4 1-.6 0-1.1-.5-1.1-1 0-.6.2-1 .4-1 .3 0 .8.4 1.1 1zm630.5-.6c0 .3-.4.8-1 1.1-.5.3-1 .1-1-.4 0-.6.5-1.1 1-1.1.6 0 1 .2 1 .4zm-71.3 4.8c2.2 1.7.2 3.8-3.6 3.8-5 0-5.5-.8-2.3-3.5 2.6-2.2 3.3-2.3 5.9-.3zm-135.7 1.4c0 .8-.5 1.2-1 .9-.6-.4-.8-1.1-.5-1.6.9-1.4 1.5-1.1 1.5.7zm238 3.4c1.3.8 1.3 1-.2 1-.9 0-2-.5-2.3-1-.8-1.3.5-1.3 2.5 0zm99.5 9.9c.3.5.1 1.2-.5 1.6-.5.3-1-.1-1-.9 0-1.8.6-2.1 1.5-.7zM1427 465c0 .5-.4 1-.9 1-.6 0-1.3-.5-1.6-1-.3-.6.1-1 .9-1 .9 0 1.6.4 1.6 1zm-586 1.6c0 .8-.5 1.2-1 .9-.6-.4-.8-1.1-.5-1.6.9-1.4 1.5-1.1 1.5.7zm284 1.4c0 .5-.5 1-1.1 1-.5 0-.7-.5-.4-1 .3-.6.8-1 1.1-1 .2 0 .4.4.4 1zm-243 .4c0 .9-3 1.4-3.5.6-.4-.6.3-1 1.4-1 1.2 0 2.1.2 2.1.4zm439 4.1c0 .8-.4 1.5-1 1.5-.5 0-1-.7-1-1.5s.5-1.5 1-1.5c.6 0 1 .7 1 1.5zM751.5 475c.3.5-.1 1-.9 1-.9 0-1.6-.5-1.6-1 0-.6.4-1 .9-1 .6 0 1.3.4 1.6 1zm239.5 1.4c0 .3-.4.8-1 1.1-.5.3-1 .1-1-.4 0-.6.5-1.1 1-1.1.6 0 1 .2 1 .4zm330.7 5.3c-.3 1-.5.4-.5-1.2 0-1.7.2-2.4.5-1.8.2.7.2 2.1 0 3zm80.3-1.7c0 .5-.7 1-1.6 1-.8 0-1.2-.5-.9-1 .3-.6 1-1 1.6-1 .5 0 .9.4.9 1zm-429.3 3.6c-.3.3-1.2.4-1.9.1-.8-.3-.5-.6.6-.6 1.1-.1 1.7.2 1.3.5zm516.6.1c-.7.2-1.9.2-2.5 0-.7-.3-.2-.5 1.2-.5s1.9.2 1.3.5zM983 485c0 .5-.4 1-1 1-.5 0-1-.5-1-1 0-.6.5-1 1-1 .6 0 1 .4 1 1zm-357 2c.9 1.6.8 2-.5 2-.8 0-1.5-.9-1.5-2s.2-2 .5-2c.2 0 .9.9 1.5 2zm608-1c0 .5-.4 1-1 1-.5 0-1-.5-1-1 0-.6.5-1 1-1 .6 0 1 .4 1 1zm261.7.6c.3.8.1 2-.6 2.7-.8.8-1.1.8-1.1 0 0-.6-.3-1.8-.6-2.7-.3-.9-.1-1.6.5-1.6.7 0 1.4.7 1.8 1.6zm-353.7 3.1c0 2.1-1.4 1.5-2.6-1.1-1.1-2.3-1-2.4.7-1.3 1.1.7 1.9 1.7 1.9 2.4zm369-.7c0 .5-.7 1-1.6 1-.8 0-1.2-.5-.9-1 .3-.6 1-1 1.6-1 .5 0 .9.4.9 1zm-711 3c0 .5-.4 1-1 1-.5 0-1-.5-1-1 0-.6.5-1 1-1 .6 0 1 .4 1 1zm554 4c0 1.6-.4 3-1 3-.5 0-1-1.4-1-3 0-1.7.5-3 1-3 .6 0 1 1.3 1 3zm170-2c0 .5-.4 1-1 1-.5 0-1-.5-1-1 0-.6.5-1 1-1 .6 0 1 .4 1 1zm-690 2c0 .5-.4 1-1 1-.5 0-1-.5-1-1 0-.6.5-1 1-1 .6 0 1 .4 1 1zm12 1c0 .5-.4 1-1 1-.5 0-1-.5-1-1 0-.6.5-1 1-1 .6 0 1 .4 1 1zm253 4c0 .5-.5 1-1.1 1-.5 0-.7-.5-.4-1 .3-.6.8-1 1.1-1 .2 0 .4.4.4 1zm-794 2c0 .5-.6 1-1.4 1-.8 0-1.8-.5-2.1-1-.3-.6.3-1 1.4-1 1.2 0 2.1.4 2.1 1zm1197 1.5c0 .8-.4 1.7-1 2-.6.4-1-.5-1-2s.4-2.4 1-2c.6.3 1 1.2 1 2zm-642.8 1.7c-.9.9-1.2.7-1.2-1.2s.3-2.1 1.2-1.2c.9.9.9 1.5 0 2.4zm189.3 3c1.1 4.7 1.3 13.8.3 14.4-.4.3-.8.1-.8-.4 0-.4-.9-1.8-2.1-3.1-1.9-2.1-2-2.4-.5-4 1.2-1.4 1.5-2.9.9-6.6-.7-5.5.9-5.7 2.2-.3zm513-2.2c.3.5-.1 1-.9 1-.9 0-1.6-.5-1.6-1 0-.6.4-1 .9-1 .6 0 1.3.4 1.6 1zm-366.5 2c0 .5-.4 1-1 1-.5 0-1-.5-1-1 0-.6.5-1 1-1 .6 0 1 .4 1 1zm-417 2c0 .5-.4 1-1 1-.5 0-1-.5-1-1 0-.6.5-1 1-1 .6 0 1 .4 1 1zm-25 3.1c0 .5-.9.9-2 .9-2.2 0-2.7-1.6-.7-2.3 1.5-.5 2.7.1 2.7 1.4zm409.3.3c.4 1 .1 1.3-.9.9-1.5-.6-1.9-2.3-.5-2.3.5 0 1.1.7 1.4 1.4zm293.3-.5c-.3.5-1.9 1.1-3.5 1.3-2.1.3-2.8.1-2.4-.9.3-.7 1.8-1.3 3.5-1.3 1.6 0 2.7.4 2.4.9zm-482.1 2c.3.5.1 1.2-.5 1.6-.5.3-1-.1-1-.9 0-1.8.6-2.1 1.5-.7zM1287 517c0 .5-.4 1-1 1-.5 0-1-.5-1-1 0-.6.5-1 1-1 .6 0 1 .4 1 1zm9 1.5c.7.8.8 1.5.2 1.5-.5 0-1.5-.7-2.2-1.5-.7-.8-.8-1.5-.2-1.5.5 0 1.5.7 2.2 1.5zm-144 .4c0 .5-.7 1.1-1.5 1.5-.9.3-1.5 0-1.5-.9 0-.8.7-1.5 1.5-1.5s1.5.4 1.5.9zm52.2 3.6c.6 1.4.8 2.8.4 3.2-1 1-5-3.3-4.2-4.6 1.1-1.8 2.6-1.3 3.8 1.4zm237.2 1.6c-1.1 1.8-2.4.8-2.4-1.9.1-2.6.1-2.6 1.5-.8.8 1 1.2 2.3.9 2.7zm-693.8 2.7c-2.4 2.4-3 .7-.9-2.4 1.5-2.4 1.8-2.5 2.1-1 .2 1-.3 2.5-1.2 3.4zm470.4-3.3c-1.4 1.6-4 2-4 .6 0-1 1.7-1.9 3.9-2 1.1-.1 1.1.2.1 1.4zm187.5-.6c.3.5.1 1.2-.5 1.6-.5.3-1-.1-1-.9 0-1.8.6-2.1 1.5-.7zM544 524c0 .5-.4 1-1 1-.5 0-1-.5-1-1 0-.6.5-1 1-1 .6 0 1 .4 1 1zm630.9 2.9c2.2 3.1 2.8 6.1 1.1 6.1-.6 0-1.5-1.2-2.1-2.8-.6-1.5-1.5-3.5-2-4.5-1.5-2.8.8-2 3 1.2zm-27.9-.9c0 .5-.7 1-1.6 1-.8 0-1.2-.5-.9-1 .3-.6 1-1 1.6-1 .5 0 .9.4.9 1zm97 1c1.1 0 1.1.3-.3 1.7-1.3 1.3-2.1 1.5-3.4.7-2.8-1.8-2.9-3.8-.2-3.1 1.3.4 3.1.7 3.9.7zm376 2c0 .5-.4 1-1 1-.5 0-1-.5-1-1 0-.6.5-1 1-1 .6 0 1 .4 1 1zm-287.4 2.5c.3.8 2.2 2.5 4.2 3.7 3.1 1.9 3.4 2.3 1.7 2.6-1.1.2-2.5.8-3.1 1.3-.7.5-2.3.3-4.3-.7-3-1.5-4.2-3.4-2.1-3.4.6 0 1-1.1 1-2.5 0-2.7 1.7-3.4 2.6-1zm30.8 1.1c.4 1 .1 1.4-.6 1.2-1.5-.5-2.3-2.8-1-2.8.5 0 1.3.7 1.6 1.6zm-497.8 4c-.3.8-1 1.4-1.6 1.4-1.1 0-1.4-4.3-.3-5.4 1-1 2.6 2.3 1.9 4zm435.9-2.6c.3.5-.1 1-1 1s-1.3-.5-1-1c.3-.6.8-1 1-1 .2 0 .7.4 1 1zm-117.5 7.3c0 .5-.7.4-1.5-.3s-1.5-2-1.5-2.9c.1-1.3.3-1.3 1.5.3.8 1.1 1.5 2.4 1.5 2.9zm199-2.8c-.6.8-.9 2.3-.5 3.5.6 1.9.5 2.1-1.3 1.1-1.2-.6-2.4-1.6-2.7-2.1-1-1.5 1.4-4 3.7-4 1.7 0 1.8.3.8 1.5zM556 541c0 .5-.7 1-1.5 1s-1.5-.5-1.5-1c0-.6.7-1 1.5-1s1.5.4 1.5 1zm886.9 6.2c.1.5-.3.8-.9.8-.5 0-1-1.2-.9-2.8 0-2.4.1-2.5.9-.7.5 1.1.9 2.3.9 2.7zm-249.9 5.7c-.1 1.1-.9.6-2.5-1.4-3.2-3.9-3.2-5.5 0-2.5 1.4 1.3 2.5 3.1 2.5 3.9zm481.5-3.9c.3.5.1 1-.4 1-.6 0-1.1-.5-1.1-1 0-.6.2-1 .4-1 .3 0 .8.4 1.1 1zm-222.5 1c0 .5-.4 1-1 1-.5 0-1-.5-1-1 0-.6.5-1 1-1 .6 0 1 .4 1 1zm-755 1c0 .5-.4 1-1 1-.5 0-1-.5-1-1 0-.6.5-1 1-1 .6 0 1 .4 1 1zm325 0c0 .5-.4 1-1 1-.5 0-1-.5-1-1 0-.6.5-1 1-1 .6 0 1 .4 1 1zm309.5 0c.3.5.1 1-.4 1-.6 0-1.1-.5-1.1-1 0-.6.2-1 .4-1 .3 0 .8.4 1.1 1zm-25.1 4.5c-.7 1.6-2.4 2.1-2.4.6 0-.5-.3-1.7-.7-2.6-.5-1.5-.3-1.6 1.5-.6 1.3.7 1.9 1.7 1.6 2.6zm-206.8-.9c1.8 1.4 1.8 1.5-.6.8-3.1-.8-5-2.4-2.9-2.4.8 0 2.4.7 3.5 1.6zm-212.6 1c0 .8-.4 1.2-1 .9-.5-.3-1-1-1-1.6 0-.5.5-.9 1-.9.6 0 1 .7 1 1.6zm362.4.9c-.6 1.6-2.4 2.1-2.4.7 0-1.1 1.1-2.2 2.1-2.2.5 0 .6.7.3 1.5zM934 557c0 .5-.7 1-1.5 1s-1.5-.5-1.5-1c0-.6.7-1 1.5-1s1.5.4 1.5 1zm472.7 3.7c-.3 1-.5.4-.5-1.2 0-1.7.2-2.4.5-1.8.2.7.2 2.1 0 3zm-203.7 2.8c0 .8 1.6 3.3 3.6 5.5s3.2 4 2.6 4c-.6 0-2.7-1.9-4.6-4.2-3.5-4.1-4.6-6.8-2.6-6.8.6 0 1 .7 1 1.5zm-137.5 2.5c.4.6-.5 1-2 1s-2.4-.4-2-1c.3-.6 1.2-1 2-1s1.7.4 2 1zM600 568c0 .5-.4 1-1 1-.5 0-1-.5-1-1 0-.6.5-1 1-1 .6 0 1 .4 1 1zm168 2.1c-.7 1.1-1.4 1.8-1.7 1.5-.8-.8.5-3.6 1.7-3.6.7 0 .7.6 0 2.1zm59.3 1.6c.4.3.2 1.2-.4 1.9-1.2 1.5-4.9.2-4.9-1.6 0-1.1 4.3-1.4 5.3-.3zM821 573c0 .5-.4 1-1 1-.5 0-1-.5-1-1 0-.6.5-1 1-1 .6 0 1 .4 1 1zm395.4 7.8c.8 1.6 2.2 3.4 3 4.1 1.7 1.5 2.3 6.6.6 5.6-.5-.3-1-1.3-1-2.2 0-.9-1-3-2.3-4.7-3.4-4.5-3.9-5.6-2.8-5.6.6 0 1.7 1.3 2.5 2.8zm-906.4-.3c0 .8-.4 1.5-1 1.5-.5 0-1-.7-1-1.5s.5-1.5 1-1.5c.6 0 1 .7 1 1.5zm744.6 1.2c-1 1-1.9-.5-1-1.8.6-1.1.8-1.1 1.2 0 .2.7.1 1.5-.2 1.8zm526.9 1.3c0 3.1-.3 3.5-2.8 3.8-3.6.4-12.9-2.7-12.4-4.1.2-.7 2.4-1.4 5-1.7 2.5-.3 5-.9 5.4-1.3.4-.4 1.6-.7 2.8-.5 1.6.2 2 1 2 3.8zM533 582.6c0 .9-.5 1.4-1.2 1.2-1.8-.6-2.1-2.8-.4-2.8.9 0 1.6.7 1.6 1.6zm390 .4c0 .5-.5 1-1.1 1-.5 0-.7-.5-.4-1 .3-.6.8-1 1.1-1 .2 0 .4.4.4 1zm579.7 1.2c-.3.8-.6.5-.6-.6-.1-1.1.2-1.7.5-1.3.3.3.4 1.2.1 1.9zM1341 584c0 .5-.4 1-1 1-.5 0-1-.5-1-1 0-.6.5-1 1-1 .6 0 1 .4 1 1zm-548 1c0 .5-.5 1-1.1 1-.5 0-.7-.5-.4-1 .3-.6.8-1 1.1-1 .2 0 .4.4.4 1zm181.2 2.2c-.7.7-1.2.8-1.2.2 0-1.4 1.2-2.6 1.9-1.9.2.3-.1 1.1-.7 1.7zm399.8.3c0 .8-.7 1.5-1.5 1.5-.9 0-1.2-.6-.9-1.5.4-.8 1-1.5 1.5-1.5s.9.7.9 1.5zm-680 .5c0 .5-.4 1-1 1-.5 0-1-.5-1-1 0-.6.5-1 1-1 .6 0 1 .4 1 1zm552.6 1.1c.3.6 0 1.5-.7 2-1.3.7-2.8-.5-2.9-2.4 0-1.1 2.8-.8 3.6.4zm12.9.9c.3.5.1 1-.4 1-.6 0-1.1-.5-1.1-1 0-.6.2-1 .4-1 .3 0 .8.4 1.1 1zm-104 3c.3.5-.1 1-.9 1-.9 0-1.6-.5-1.6-1 0-.6.4-1 .9-1 .6 0 1.3.4 1.6 1zm248 3c.3.5.1 1-.4 1-.6 0-1.1-.5-1.1-1 0-.6.2-1 .4-1 .3 0 .8.4 1.1 1zM690 599c0 .5-.5 1-1.1 1-.5 0-.7-.5-.4-1 .3-.6.8-1 1.1-1 .2 0 .4.4.4 1zm544.2 3.5c2.1 2.4 2.3 4.5.4 4.5-1.5 0-5.6-5.9-5.6-8 0-1.5 2.4.1 5.2 3.5zM296 600c0 .5-.4 1-1 1-.5 0-1-.5-1-1 0-.6.5-1 1-1 .6 0 1 .4 1 1zm460 0c0 .5-1.3 1-2.9 1-1.6 0-3.8.3-4.8.6-1.6.6-1.6.5.2-.9 2.2-1.8 7.5-2.3 7.5-.7zm181 0c0 .5-.5 1-1.1 1-.5 0-.7-.5-.4-1 .3-.6.8-1 1.1-1 .2 0 .4.4.4 1zm320.5-.1c.3.5 0 1.3-.5 1.6-1.5.9-6-.3-6-1.5 0-1.3 5.7-1.3 6.5-.1zm236.5.1c0 .5-.7 1-1.6 1-.8 0-1.2-.5-.9-1 .3-.6 1-1 1.6-1 .5 0 .9.4.9 1zm-404.2 1.1c-.2.6-.7 1-1.1 1-.4-.1-1.5-.1-2.4-.1-1.5 0-1.6-.2-.3-1 2-1.3 4.3-1.3 3.8.1zM703 604.5c0 .8-.4 1.5-1 1.5-.5 0-1-.7-1-1.5s.5-1.5 1-1.5c.6 0 1 .7 1 1.5zm725 0c0 .8-.4 1.5-1 1.5-.5 0-1-.7-1-1.5s.5-1.5 1-1.5c.6 0 1 .7 1 1.5zm-626.1 2.1c.3 1.6.1 1.7-1.3.5-1.9-1.6-2.1-3.4-.3-2.9.6.3 1.4 1.3 1.6 2.4zM996 605c0 .5-.5 1-1.1 1-.5 0-.7-.5-.4-1 .3-.6.8-1 1.1-1 .2 0 .4.4.4 1zm72 2c0 .5-.2 1-.4 1-.3 0-.8-.5-1.1-1-.3-.6-.1-1 .4-1 .6 0 1.1.4 1.1 1zm-9 1.4c0 .3-.4.8-1 1.1-.5.3-1 .1-1-.4 0-.6.5-1.1 1-1.1.6 0 1 .2 1 .4zm57.5 1.6c.3.5-.1 1-1 1s-1.3-.5-1-1c.3-.6.8-1 1-1 .2 0 .7.4 1 1zm-75.5 1c0 .5-.2 1-.4 1-.3 0-.8-.5-1.1-1-.3-.6-.1-1 .4-1 .6 0 1.1.4 1.1 1zm222 1.5c0 .9-.6 1.2-1.5.9-.8-.4-1.5-1-1.5-1.5s.7-.9 1.5-.9 1.5.7 1.5 1.5zm-438 2.9c0 .8-.4 1.8-1 2.1-.5.3-1-.3-1-1.4 0-1.2.5-2.1 1-2.1.6 0 1 .6 1 1.4zm418.8.8c.7.7 1.2 1.6 1.2 2 0 1.5-1.5.8-2.8-1.2-1.3-2.2-.3-2.7 1.6-.8zm-243.8.8c0 .5-.4 1-1 1-.5 0-1-.5-1-1 0-.6.5-1 1-1 .6 0 1 .4 1 1zm52.6 2.7c-1 1-1.9-.5-1-1.8.6-1.1.8-1.1 1.2 0 .2.7.1 1.5-.2 1.8zm-156.8-.5c.7.7 1.2 1.6 1.2 2 0 1.5-1.5.8-2.8-1.2-1.3-2.2-.3-2.7 1.6-.8zm377.2-.2c0 .5-.4 1-1 1-.5 0-1-.5-1-1 0-.6.5-1 1-1 .6 0 1 .4 1 1zm-50 2.1c0 .5-.4.9-1 .9-.5 0-1-.7-1-1.6 0-.8.5-1.2 1-.9.6.3 1 1 1 1.6zm-500 1.2c0 1.5-5.1 3.1-6.8 2.1-3-1.9-2.2-3 2.3-2.9 2.5 0 4.5.3 4.5.8zm78-.3c0 .5-.7 1-1.6 1-.8 0-1.2-.5-.9-1 .3-.6 1-1 1.6-1 .5 0 .9.4.9 1zm-272 2c0 .5-.2 1-.4 1-.3 0-.8-.5-1.1-1-.3-.6-.1-1 .4-1 .6 0 1.1.4 1.1 1zm-64.6.9c.3.5-.1 1.2-1 1.5-2.2.9-2.4.8-2.4-.9 0-1.6 2.5-2.1 3.4-.6zm509.3.9c1.6 1 4.6 8.2 3.4 8.2-.9 0-4.7-4.5-6.5-7.8-.8-1.3 1.2-1.6 3.1-.4zm51.3 1.7c0 2.1-1.7 2.7-2.4.9-1-2.5-.7-3.4.9-2.8.8.4 1.5 1.2 1.5 1.9zm-169-.5c0 .5-.4 1-1 1-.5 0-1-.5-1-1 0-.6.5-1 1-1 .6 0 1 .4 1 1zm447.8.2c-.2.6-1 1.4-1.6 1.6-.7.2-1-.2-.6-1.2.7-1.8 2.8-2.2 2.2-.4zm-377 2.1c.2 1-.3 1.7-1.2 1.7-1 0-1.6-.9-1.6-2.1 0-2.4 2.3-2.1 2.8.4zM708 629c0 .5-.4 1-1 1-.5 0-1-.5-1-1 0-.6.5-1 1-1 .6 0 1 .4 1 1zm744 1.1c0 .5-.4.9-1 .9-.5 0-1-.7-1-1.6 0-.8.5-1.2 1-.9.6.3 1 1 1 1.6zm-508 1.4c1.3 1.6.6 3.5-1.5 3.5-1.8 0-2.8-1.7-2.1-3.5.7-1.9 2-1.9 3.6 0zm403.6 2.2c-1.1 1.1-1.9-.6-1.1-2.4.8-1.7.8-1.7 1.2 0 .3 1 .2 2.1-.1 2.4zm-323.6-1.3c0 .8-.4 1.8-1 2.1-.5.3-1-.3-1-1.4 0-1.2.5-2.1 1-2.1.6 0 1 .6 1 1.4zm-265 1.7c0 1.8-2 1.8-2.9 0-.9-1.6-.8-1.8.9-1.4 1.1.3 2 .9 2 1.4zm191.6 1.7c-2.2.5-3-.3-2.1-1.8.5-.8 1.1-.7 2.2.2 1.5 1.2 1.4 1.3-.1 1.6zm56.4-1.7c0 .6-.9 2.2-2 3.6s-2 3.5-2 4.7c-.1 1.9-.2 1.9-1.1.4-.7-1.2-.6-2.6.4-4.5.8-1.6 1.2-3.4 1-4.1-.3-.7.4-1.2 1.6-1.2 1.2 0 2.1.5 2.1 1.1zm68 2.5c0 .8-.4 1.2-1 .9-.5-.3-1-1-1-1.6 0-.5.5-.9 1-.9.6 0 1 .7 1 1.6zm488.4 4.8c-2.2 1.7-3.2.3-1.3-2 .8-1 1.5-1.2 2.3-.4.7.7.4 1.4-1 2.4zm-504.7 1.2c-.3.3-1.2.4-1.9.1-.8-.3-.5-.6.6-.6 1.1-.1 1.7.2 1.3.5zm-259 2.6c-.3.8-.6.5-.6-.6-.1-1.1.2-1.7.5-1.3.3.3.4 1.2.1 1.9zm768.3-.7c0 .8-.4 1.5-1 1.5-.5 0-1-.7-1-1.5s.5-1.5 1-1.5c.6 0 1 .7 1 1.5zM882 647c0 .5-.4 1-1 1-.5 0-1-.5-1-1 0-.6.5-1 1-1 .6 0 1 .4 1 1zm470.5 2l3.9 2h-3c-1.8 0-3.8-.8-4.9-2-1-1.1-1.4-2-.9-2 .6 0 2.7.9 4.9 2zm33.5-1c0 .5-.4 1-1 1-.5 0-1-.5-1-1 0-.6.5-1 1-1 .6 0 1 .4 1 1zm-183 1c0 .5-.6 1.1-1.2 1.1-7.1.8-9.8.4-9.8-1.2 0-.5 2.5-.9 5.5-.9s5.5.4 5.5 1zm-434.5 2c.3 1.1 1.1 2 1.6 2s.9.5.9 1.1c0 .6-1.4.1-3-1.1-1.7-1.2-2.8-2.6-2.5-3.1 1-1.5 2.3-1 3 1.1zm37.3.9c.3.8-.1 1.2-.9.9-.7-.2-1.5-1-1.7-1.7-.3-.8.1-1.2.9-.9.7.2 1.5 1 1.7 1.7zm42.3 8.4c-1.5 4-3 3.3-1.7-.8.6-1.9 1.4-3.1 1.9-2.6.4.4.3 2-.2 3.4zm658.4-.3c.3.5-.1 1-.9 1s-1.8-.5-2.1-1c-.3-.6.1-1 .9-1s1.8.4 2.1 1zm-227 2c1 1.1 1.5 2 1.2 2-1.4 0-5.7-2.4-5.7-3.2 0-1.5 2.7-.8 4.5 1.2zm360.5-1.6c0 .3-.4.8-1 1.1-.5.3-1 .1-1-.4 0-.6.5-1.1 1-1.1.6 0 1 .2 1 .4zm-561 1.6c0 .5-.5 1-1.1 1-.5 0-.7-.5-.4-1 .3-.6.8-1 1.1-1 .2 0 .4.4.4 1zm-530 4.4c-1.2 2-2 4.6-1.8 5.8.2 1.5-.3 2.4-1.4 2.6-2.4.5-2.3-2.6.2-5.8 1.1-1.4 2-3 2-3.6 0-1.2 2.2-3.5 2.8-2.9.2.2-.6 2-1.8 3.9zm228 .1c1.7.9 3 2 3 2.6 0 .6-.3.9-.7.7-4.9-2.4-6.3-3.2-6.3-4 0-1.1.7-1 4 .7zm458.5-.6c.3.5.1 1.2-.5 1.6-.5.3-1-.1-1-.9 0-1.8.6-2.1 1.5-.7zm53.2 5.7c0 2.2-.7 3.3-2.4 4.1-2.1 1-2.3.9-1.9-.5.3-.9-.1-2.9-.9-4.5-1.3-2.6-1.3-2.7 1-2.1 2.1.5 2.3.3 1.8-1.8-.5-2.2-.5-2.2.9-.3.8 1.1 1.5 3.4 1.5 5.1zM1393 666c0 .5-.7 1-1.5 1s-1.5-.5-1.5-1c0-.6.7-1 1.5-1s1.5.4 1.5 1zm-408 2.6c0 .8-.5 1.2-1 .9-.6-.4-.8-1.1-.5-1.6.9-1.4 1.5-1.1 1.5.7zm-192 .3c0 .5-.7 1.1-1.4 1.4-1 .4-1.3.1-.9-.9.6-1.5 2.3-1.9 2.3-.5zm-172 1.9c0 2.5-2 4.2-4.9 4.2h-2.5l2.9-3c3.3-3.4 4.5-3.8 4.5-1.2zm587 .2c0 .5-.4 1-1 1-.5 0-1-.5-1-1 0-.6.5-1 1-1 .6 0 1 .4 1 1zm146 0c0 .5-.4 1-1 1-.5 0-1-.5-1-1 0-.6.5-1 1-1 .6 0 1 .4 1 1zm245 0c0 .5-.4 1-1 1-.5 0-1-.5-1-1 0-.6.5-1 1-1 .6 0 1 .4 1 1zm-186.1 6.2c-1.1 2.1-2.9 2.4-2.9.4 0-.7-.7-1.9-1.5-2.6-1.3-1.1-1.3-1.4.2-2.6 1.6-1.1 2-1 3.5.9 1.2 1.5 1.4 2.6.7 3.9zm-176.9-3.8c0 .3-.4.8-1 1.1-.5.3-1 .1-1-.4 0-.6.5-1.1 1-1.1.6 0 1 .2 1 .4zm118 4.2c0 .8-.4 1.2-1 .9-.5-.3-1-1-1-1.6 0-.5.5-.9 1-.9.6 0 1 .7 1 1.6zm-165.2 3.4c3.7 3.3 4.3 4.4 4 7.2-.3 3-.6 3.3-4.1 3.6-7.6.6-12.9-7.9-7.9-12.9 2.4-2.5 3.2-2.3 8 2.1zm283.2-3c0 .5-.4 1-1 1-.5 0-1-.5-1-1 0-.6.5-1 1-1 .6 0 1 .4 1 1zm-177 1c0 .5-.4 1-1 1-.5 0-1-.5-1-1 0-.6.5-1 1-1 .6 0 1 .4 1 1zm-57.5 2c.3.5-.1 1-.9 1-.9 0-1.6-.5-1.6-1 0-.6.4-1 .9-1 .6 0 1.3.4 1.6 1zm410.5 3c1.2 0 1.9.4 1.5 1-.3.5 1.4 4.6 3.7 9.2 2.4 4.6 4.4 8.6 4.6 8.9.5 1-7.2 2.8-10.8 2.5-3.3-.3-3.5-.6-3.5-4 0-2.8-.7-4.2-3-6.1-2.8-2.3-2.9-2.4-.7-2.5 2.3 0 3-1.4 1.2-2.5-1.4-.8-1.3-6.1.1-8.8l1.2-2.1 1.7 2.2c1 1.2 2.8 2.2 4 2.2zm-1047.6.2c-.4 1.8-1.2 3.7-1.8 4.3-.6.5-1.1 2.1-1.1 3.5 0 1.6-.6 2.6-1.7 2.8-2.3.4-2.4-3-.3-4.8.8-.7 1.8-3 2.1-5.1.4-2.3 1.2-3.9 2-3.9 1 0 1.2.9.8 3.2zm610.1-2.2c.3.5-.1 1-1 1s-1.3-.5-1-1c.3-.6.8-1 1-1 .2 0 .7.4 1 1zm-78.5 2c0 .5-.7 1-1.6 1-.8 0-1.2-.5-.9-1 .3-.6 1-1 1.6-1 .5 0 .9.4.9 1zm310 4c0 .5-.2 1-.4 1-.3 0-.8-.5-1.1-1-.3-.6-.1-1 .4-1 .6 0 1.1.4 1.1 1zm-431 2.5c0 .8-.4 1.5-1 1.5-.5 0-1-.7-1-1.5s.5-1.5 1-1.5c.6 0 1 .7 1 1.5zm-371.1.6c3.3 1.2 4 4.1 1.1 4.6-2.1.4-6.4-3.2-5.6-4.6.9-1.3.6-1.3 4.5 0zM1455 693c0 .5-.4 1-.9 1-.6 0-1.3-.5-1.6-1-.3-.6.1-1 .9-1 .9 0 1.6.4 1.6 1zm-146.3 1.6c-.3.3-1.2.4-1.9.1-.8-.3-.5-.6.6-.6 1.1-.1 1.7.2 1.3.5zm48.6 4.1c.3 2.4.1 4.3-.4 4.3s-.9-2.1-.9-4.7c0-5.6.5-5.4 1.3.4zM746.5 696c1.5.6 2.5 1.6 2.3 2.2-.5 1.4-5.7 2.9-10.8 3.2-5.1.2-5.2-2.7-.3-4.7 4.6-1.9 5.4-2 8.8-.7zm-97.5 3.5c0 3.4-1.8 8.5-3 8.5-1.1 0-3-2.4-3-3.8 0-2.5 3.2-8.2 4.6-8.2.9 0 1.4 1.2 1.4 3.5zm857.3 1.7c-1 2.1-1.2 2.1-1.8.5-1-2.5.2-5.4 1.7-3.9.8.8.8 1.8.1 3.4zm-353.3-2.8c0 .3-.4.8-1 1.1-.5.3-1 .1-1-.4 0-.6.5-1.1 1-1.1.6 0 1 .2 1 .4zm-716.3 1.2c-.3.3-1.2.4-1.9.1-.8-.3-.5-.6.6-.6 1.1-.1 1.7.2 1.3.5zm343.3 2.8c0 .7-1.1 1.6-2.5 1.8-2.4.5-3.4-1-1.8-2.5 1.2-1.2 4.3-.7 4.3.7zm286 .6c0 .5-.5 1-1.1 1-.5 0-.7-.5-.4-1 .3-.6.8-1 1.1-1 .2 0 .4.4.4 1zm344.6 3.7c-1.1 1.1-1.9-.6-1.1-2.4.8-1.7.8-1.7 1.2 0 .3 1 .2 2.1-.1 2.4zM1590 708c1.2.8 1.1 1-.7 1-1.3 0-2.3-.5-2.3-1 0-1.3 1.1-1.3 3 0zm-672 1.4c0 .3-.4.8-1 1.1-.5.3-1 .1-1-.4 0-.6.5-1.1 1-1.1.6 0 1 .2 1 .4zm200.2 5.8c-.6.6-1.5.8-1.9.4-.4-.4-.1-1.1.7-1.6 1.9-1.2 2.7-.3 1.2 1.2zm545.2 3.7c.7 1-5.9 5.2-6.8 4.3-.8-.8 3.4-5.2 5-5.2.7 0 1.5.4 1.8.9zM584 720c0 .5-.4 1-1 1-.5 0-1-.5-1-1 0-.6.5-1 1-1 .6 0 1 .4 1 1zm1081 5c0 .5-.7 1-1.5 1s-1.5-.5-1.5-1c0-.6.7-1 1.5-1s1.5.4 1.5 1zm-1220 5c1.2 2.3.7 2.5-2.1.9-1.1-.5-1.7-1.4-1.4-2 1-1.5 2.3-1.1 3.5 1.1zm879 .5c1 1.2 1 1.5-.4 1.5-.9 0-1.6-.7-1.6-1.5s.2-1.5.4-1.5.9.7 1.6 1.5zm180.8.7c-.4 2.7-2.8 3.6-2.8 1 0-2 .8-3.2 2.2-3.2.5 0 .8 1 .6 2.2zm-360.8 2.7c0 .6-.4 1.3-1 1.6-.5.3-1-.1-1-.9 0-.9.5-1.6 1-1.6.6 0 1 .4 1 .9zM858.5 735c.3.5.1 1-.4 1-.6 0-1.1-.5-1.1-1 0-.6.2-1 .4-1 .3 0 .8.4 1.1 1zm40.5 0c0 .5-.6 1-1.4 1-.8 0-1.8-.5-2.1-1-.3-.6.3-1 1.4-1 1.2 0 2.1.4 2.1 1zm771 .5c2.8 1.4 4.2 4.5 2.1 4.5-1.3 0-6.1-4-6.1-5.1 0-1.2.6-1.1 4 .6zM805 737c0 .5-.4 1-1 1-.5 0-1-.5-1-1 0-.6.5-1 1-1 .6 0 1 .4 1 1zm76 3c0 .5-.4 1-1 1-.5 0-1-.5-1-1 0-.6.5-1 1-1 .6 0 1 .4 1 1zm152 2c0 .5-.4 1-1 1-.5 0-1-.5-1-1 0-.6.5-1 1-1 .6 0 1 .4 1 1zm195 .5c0 .8-.7 1.5-1.5 1.5-1.6 0-2-1.2-.8-2.3 1.1-1.2 2.3-.8 2.3.8zm269-.5c0 .5-.2 1-.4 1-.3 0-.8-.5-1.1-1-.3-.6-.1-1 .4-1 .6 0 1.1.4 1.1 1zm-584.5 1c.3.5.1 1-.4 1-.6 0-1.1-.5-1.1-1 0-.6.2-1 .4-1 .3 0 .8.4 1.1 1zm177.5 1.5c0 .8-.7 1.5-1.5 1.5-1.6 0-2-1.2-.8-2.3 1.1-1.2 2.3-.8 2.3.8zm584.5.5c.3.5-.3 1-1.5 1s-1.8-.5-1.5-1c.3-.6 1-1 1.5-1s1.2.4 1.5 1zm-518.5 7c0 .5-.4 1-1 1-.5 0-1-.5-1-1 0-.6.5-1 1-1 .6 0 1 .4 1 1zm195 .5c.7.9.8 1.5.2 1.5-.5 0-1.2-.7-1.6-1.5-.3-.8-.4-1.5-.2-1.5s.9.7 1.6 1.5zm51 1c0 1.4-.4 2.5-1 2.5-.5 0-1-1.1-1-2.5s.5-2.5 1-2.5c.6 0 1 1.1 1 2.5zm-966.4 1.6c1.1 1.8-3.3.8-5.1-1.1-1.8-2-1.8-2 1.3-.9 1.8.6 3.5 1.5 3.8 2zm647.4-1.6c0 .8-.4 1.5-1 1.5-.5 0-1-.7-1-1.5s.5-1.5 1-1.5c.6 0 1 .7 1 1.5zm81-.1c0 1.1-1.9 1.5-2.5.6-.3-.5.1-1 .9-1 .9 0 1.6.2 1.6.4zm78.6 4.3c-1.1 1.1-1.9-.6-1.1-2.4.8-1.7.8-1.7 1.2 0 .3 1 .2 2.1-.1 2.4zm120.4-1.1c0 .8-.4 1.2-1 .9-.5-.3-1-1-1-1.6 0-.5.5-.9 1-.9.6 0 1 .7 1 1.6zm-1038-.2c0 1.1-1.9 1.5-2.5.6-.3-.5.1-1 .9-1 .9 0 1.6.2 1.6.4zm1112.5 3.7c.9 2.7.1 3.3-2.3 2-1.2-.6-3.1-1.1-4.3-1.1-4 0 .1-2.4 4.8-2.9.6 0 1.5.8 1.8 2zm-915.5 5c0 .5-.4.9-1 .9-.5 0-1-.7-1-1.6 0-.8.5-1.2 1-.9.6.3 1 1 1 1.6zm559.8.8c.3.8-.1 1.2-.9.9-.7-.2-1.5-1-1.7-1.7-.3-.8.1-1.2.9-.9.7.2 1.5 1 1.7 1.7zm329.2 5.7c0 .8-.4 1.2-1 .9-.5-.3-1-1-1-1.6 0-.5.5-.9 1-.9.6 0 1 .7 1 1.6zm273 1.4c0 .5-.4 1-.9 1-.6 0-1.3-.5-1.6-1-.3-.6.1-1 .9-1 .9 0 1.6.4 1.6 1zm-856 1c0 .5-.4 1-1 1-.5 0-1-.5-1-1 0-.6.5-1 1-1 .6 0 1 .4 1 1zm127 0c0 .5-.7 1-1.5 1s-1.5-.5-1.5-1c0-.6.7-1 1.5-1s1.5.4 1.5 1zm259 0c0 .5-.4 1-1 1-.5 0-1-.5-1-1 0-.6.5-1 1-1 .6 0 1 .4 1 1zm279 3c0 .5-.4 1-1 1-.5 0-1-.5-1-1 0-.6.5-1 1-1 .6 0 1 .4 1 1zm-925 7c0 .5-.2 1-.4 1-.3 0-.8-.5-1.1-1-.3-.6-.1-1 .4-1 .6 0 1.1.4 1.1 1zm1040 0c0 .5-.4 1-1 1-.5 0-1-.5-1-1 0-.6.5-1 1-1 .6 0 1 .4 1 1zm-422 4.9c0 .5-.7 1.1-1.5 1.5-1.5.5-2-.5-.8-1.7.9-1 2.3-.9 2.3.2zm42 .9c0 .4-1.4 1.3-3.1 1.9-3.1 1.2-3.1 1.2-1.4-.7 1.8-2 4.5-2.7 4.5-1.2zm-479 3.7c0 .8-.4 1.5-1 1.5-.5 0-1-.7-1-1.5s.5-1.5 1-1.5c.6 0 1 .7 1 1.5zm463.5.5c.3.5-.1 1-1 1s-1.3-.5-1-1c.3-.6.8-1 1-1 .2 0 .7.4 1 1zM556 795.9c0 .5-.6 1.4-1.4 2.1-.8.6-1.2 1.8-.9 2.6.7 1.9-1.1 1.8-2.7-.1-1-1.3-1-1.9.5-3.5 1.9-2 4.5-2.7 4.5-1.1zm39 .1c0 .5-.6 1-1.4 1-.8 0-1.8-.5-2.1-1-.3-.6.3-1 1.4-1 1.2 0 2.1.4 2.1 1zm378.5 1c.3.5.1 1-.4 1-.6 0-1.1-.5-1.1-1 0-.6.2-1 .4-1 .3 0 .8.4 1.1 1zm245.5.8c0 1.4-3.9 4.6-4.7 3.9-.3-.4.2-1.6 1.2-2.7 1.9-2.1 3.5-2.6 3.5-1.2zm-123 1.2c0 .5-.2 1-.4 1-.3 0-.8-.5-1.1-1-.3-.6-.1-1 .4-1 .6 0 1.1.4 1.1 1zm-242 2c0 .5-.4 1-1 1-.5 0-1-.5-1-1 0-.6.5-1 1-1 .6 0 1 .4 1 1zm-127.9 2.6c1.2 1.4 1.1 1.6-.5 1.3-1.1-.2-2.1-1-2.4-1.7-.5-1.7 1.3-1.5 2.9.4zm20.9 1.9c0 .8-.7 1.5-1.5 1.5-1.6 0-2-1.2-.8-2.3 1.1-1.2 2.3-.8 2.3.8zm-69.4 3.1c1.8 1.4 1.8 1.5-.6.8-3.1-.8-5-2.4-2.9-2.4.8 0 2.4.7 3.5 1.6zM1363 810c0 .5-.2 1-.4 1-.3 0-.8-.5-1.1-1-.3-.6-.1-1 .4-1 .6 0 1.1.4 1.1 1zm-614.5 2c.3.5-.1 1-.9 1-.9 0-1.6-.5-1.6-1 0-.6.4-1 .9-1 .6 0 1.3.4 1.6 1zm262.5 3.1c0 .5-.4.9-1 .9-.5 0-1-.7-1-1.6 0-.8.5-1.2 1-.9.6.3 1 1 1 1.6zm-7.4.4c-2.3 1.7-3.6 1.9-3.6.6 0-1.1 1.8-1.9 4-2 1.1 0 1 .3-.4 1.4zm-300.6 1c0 .8-.4 1.5-1 1.5-.5 0-1-.7-1-1.5s.5-1.5 1-1.5c.6 0 1 .7 1 1.5zm759.5.4c.3.5.1 1.2-.5 1.6-.5.3-1-.1-1-.9 0-1.8.6-2.1 1.5-.7zm-173 1c.3.5.1 1.2-.5 1.6-.5.3-1-.1-1-.9 0-1.8.6-2.1 1.5-.7zM649 819c0 .5-.5 1-1.1 1-.5 0-.7-.5-.4-1 .3-.6.8-1 1.1-1 .2 0 .4.4.4 1zm239.6 1.7c-.2 1.6-.5 3-.5 3.2-.1.2-.8-.2-1.6-.9-1.4-1.2-1.4-1.5.1-3.1 2.3-2.5 2.5-2.4 2 .8zM682 822.1c0 .5-.7.9-1.5.9-1.5 0-2-1.2-.9-2.3.8-.8 2.4.1 2.4 1.4zm48.3.5c-.4 1.2-.8 1.3-1.4.3-.9-1.5-.2-3.2 1.1-2.4.5.3.6 1.3.3 2.1zM1181 826c-.6 1.1-1.6 1.7-2.2 1.4-.7-.5-.5-1.2.7-2.1 2.5-1.8 2.8-1.7 1.5.7zm-470 7c0 .5-.4 1-1 1-.5 0-1-.5-1-1 0-.6.5-1 1-1 .6 0 1 .4 1 1zm183.5 3.9c.3.5.1 1.2-.5 1.6-.5.3-1-.1-1-.9 0-1.8.6-2.1 1.5-.7zm-7.5 5.6c1.7 2-.9 2.1-3.6 0-1.9-1.4-1.9-1.4.2-1.5 1.2 0 2.7.7 3.4 1.5zm291 .5c0 .5-1.2 1-2.6 1-1.4 0-2.3-.4-1.9-1 .3-.6 1.5-1 2.6-1 1 0 1.9.4 1.9 1zm233 4.9c0 1.6.3 3.6.6 4.4.3.8-.2 1.7-1 2-1.3.5-1.6-.2-1.6-4.3 0-2.8.5-5 1-5 .6 0 1 1.3 1 2.9zm-287 .1c0 .5-.7 1-1.6 1-.8 0-1.2-.5-.9-1 .3-.6 1-1 1.6-1 .5 0 .9.4.9 1zm-15.5 14.8c-.3.3-1.2-.3-1.9-1.4-1.1-1.4-1.1-2.1-.3-2.6 1.2-.7 3.2 3 2.2 4zm408.6-.2c1.2 1.4 1.1 1.6-.5 1.3-1.1-.2-2.1-1-2.4-1.7-.5-1.7 1.3-1.5 2.9.4zM1371 878.9c0 .6-.4 1.3-1 1.6-.5.3-1-.1-1-.9 0-.9.5-1.6 1-1.6.6 0 1 .4 1 .9zm-622 2c0 .6-.4 1.3-1 1.6-.5.3-1-.1-1-.9 0-.9.5-1.6 1-1.6.6 0 1 .4 1 .9zm101 1.1c0 .5-.9 1-1.9 1-1.1 0-2.3-.5-2.6-1-.4-.6.5-1 1.9-1s2.6.4 2.6 1zm25.8 3c-.3.9-.9.8-2.1-.4-.9-1-1.4-2.2-1.1-2.8.8-1.3 3.8 1.6 3.2 3.2zm-223.2-1.4c2.7 1.3 3.2 1.9 2.3 3-1.7 2-3.6 1.7-5.3-.8-2.9-4.1-2.1-4.6 3-2.2zm403.4-.2c0 1.1-1.9 1.5-2.5.6-.3-.5.1-1 .9-1 .9 0 1.6.2 1.6.4zm119.8 2.7c1 1.5 1.1 2.4.3 3.2-.8.8-1.1.5-1.1-1.1 0-1.2-.4-2.2-1-2.2-.5 0-1-.5-1-1 0-1.7 1.4-1.1 2.8 1.1zM636 886c0 .5-.2 1-.4 1-.3 0-.8-.5-1.1-1-.3-.6-.1-1 .4-1 .6 0 1.1.4 1.1 1zm-448 1.1c0 1-6.9 4.4-7.6 3.6-.2-.2.3-1.3 1.2-2.5 1.5-2.2 6.4-3.1 6.4-1.1zm456-.7c0 .3-.4.8-1 1.1-.5.3-1 .1-1-.4 0-.6.5-1.1 1-1.1.6 0 1 .2 1 .4zM176.5 890c.3.5-.1 1-.9 1s-1.8-.5-2.1-1c-.3-.6.1-1 .9-1s1.8.4 2.1 1zm483.4 2.2c0 2.8-.2 3-.9 1.3-1.2-2.8-1.2-4.5 0-4.5.6 0 1 1.5.9 3.2zm145.1-.8c0 .3-.4.8-1 1.1-.5.3-1 .1-1-.4 0-.6.5-1.1 1-1.1.6 0 1 .2 1 .4zm364 1.5c0 .5-.7 1.4-1.5 2.1-1.6 1.4-1.8 1-.9-1.4.6-1.7 2.4-2.2 2.4-.7zm165 3.5c0 .3-.4.8-1 1.1-.5.3-1 .1-1-.4 0-.6.5-1.1 1-1.1.6 0 1 .2 1 .4zm-378 2c0 .3-.4.8-1 1.1-.5.3-1 .1-1-.4 0-.6.5-1.1 1-1.1.6 0 1 .2 1 .4zm35 1.7c0 .5-.4.9-1 .9-.5 0-1-.7-1-1.6 0-.8.5-1.2 1-.9.6.3 1 1 1 1.6zm247 1.4c0 1.4-.4 2.5-1 2.5-1.1 0-1.4-3.3-.3-4.3 1.1-1.1 1.3-.8 1.3 1.8zm-611-.5c0 .5-.2 1-.4 1-.3 0-.8-.5-1.1-1-.3-.6-.1-1 .4-1 .6 0 1.1.4 1.1 1zm113 1c0 .5-.5 1-1.1 1-.5 0-.7-.5-.4-1 .3-.6.8-1 1.1-1 .2 0 .4.4.4 1zm213 5.1c1.2 2.2.6 5.4-.9 4.5-.5-.3-1.4-1.9-1.9-3.6-.9-2.4-.8-3 .3-3 .8 0 1.9.9 2.5 2.1zm418-1.7c0 .3-.4.8-1 1.1-.5.3-1 .1-1-.4 0-.6.5-1.1 1-1.1.6 0 1 .2 1 .4zM684 907c0 .5-.7 1-1.5 1s-1.5-.5-1.5-1c0-.6.7-1 1.5-1s1.5.4 1.5 1zm412.7 2.2c-.3.8-.6.5-.6-.6-.1-1.1.2-1.7.5-1.3.3.3.4 1.2.1 1.9zm211.3-.2c0 .5-.4 1-1 1-.5 0-1-.5-1-1 0-.6.5-1 1-1 .6 0 1 .4 1 1zm-305 2c0 .5-.4 1-.9 1-.6 0-1.3-.5-1.6-1-.3-.6.1-1 .9-1 .9 0 1.6.4 1.6 1zm-12 3.2c0 .5-.4.8-1 .8-.5 0-1-1-1-2.3 0-1.8.2-1.9 1-.7.5.8 1 1.8 1 2.2zm77 1.8c0 2.2-.4 4-1 4-.5 0-1-1.8-1-4s.5-4 1-4c.6 0 1 1.8 1 4zm-455.5 0c-.3.5-1.2 1-2 1s-1.7-.5-2-1c-.4-.6.5-1 2-1s2.4.4 2 1zm428.5 2c0 .5-.2 1-.4 1-.3 0-.8-.5-1.1-1-.3-.6-.1-1 .4-1 .6 0 1.1.4 1.1 1zm-251 11c0 .5-.4 1-1 1-.5 0-1-.5-1-1 0-.6.5-1 1-1 .6 0 1 .4 1 1zm301.3 5.7c-.7.2-1.9.2-2.5 0-.7-.3-.2-.5 1.2-.5s1.9.2 1.3.5zM839 964.5l2.3 2.5h-2.6c-2.2 0-2.7-.5-2.7-2.5 0-1.4.1-2.5.3-2.5.2 0 1.4 1.1 2.7 2.5zm229 1.6c0 .5-.4.9-1 .9-.5 0-1-.7-1-1.6 0-.8.5-1.2 1-.9.6.3 1 1 1 1.6zm3 23.9c0 .5-.7 1-1.5 1s-1.5-.5-1.5-1c0-.6.7-1 1.5-1s1.5.4 1.5 1zm160 0c.8.5 1.2 1.2.9 1.5-.8.8-3.9-.5-3.9-1.6s1.1-1.1 3 .1zm-514 2c0 .5-.2 1-.4 1-.3 0-.8-.5-1.1-1-.3-.6-.1-1 .4-1 .6 0 1.1.4 1.1 1zm494.6 1.7c-1 1-1.9-.5-1-1.8.6-1.1.8-1.1 1.2 0 .2.7.1 1.5-.2 1.8zM1064 995c0 1.1-.7 2-1.5 2-1.3 0-1.4-.4-.5-2 .6-1.1 1.3-2 1.5-2 .3 0 .5.9.5 2zm34.7 3.6c-.3.3-1.2.4-1.9.1-.8-.3-.5-.6.6-.6 1.1-.1 1.7.2 1.3.5zm114.1.6c-.3.7-1.1 1.3-1.8 1.3s-1.5-.6-1.7-1.3c-.3-.7.4-1.2 1.7-1.2 1.3 0 2 .5 1.8 1.2zm-149.8 2.7c0 1-2.2 3.1-3.2 3.1-.4 0-.8-1.1-.8-2.4 0-1.9.4-2.3 2-1.9 1.1.3 2 .8 2 1.2zm-414 2.7c0 .8-.6 1.4-1.3 1.4-1.9 0-2.7-1-2-2.5.6-1.7 3.3-.8 3.3 1.1zm224-1.6c0 .5-.2 1-.4 1-.3 0-.8-.5-1.1-1-.3-.6-.1-1 .4-1 .6 0 1.1.4 1.1 1zm546.6 8.7c-1 1-1.9-.5-1-1.8.6-1.1.8-1.1 1.2 0 .2.7.1 1.5-.2 1.8zm-228.5 1.6c-.8.8-1.1.7-1.1-.4 0-2 1.3-3.4 1.8-1.9.3.7-.1 1.7-.7 2.3zm-509.3 5.6c.3.8-.1 1.2-.9.9-.7-.2-1.5-1-1.7-1.7-.3-.8.1-1.2.9-.9.7.2 1.5 1 1.7 1.7zm-27.2.2c1 1.7-1.3 3.6-2.7 2.2-1.2-1.2-.4-3.3 1.1-3.3.5 0 1.2.5 1.6 1.1zM638 1022c0 .5-.4 1-1 1-.5 0-1-.5-1-1 0-.6.5-1 1-1 .6 0 1 .4 1 1zm171.1 6.3c-1.3 1.3-2.6.3-1.6-1.2.3-.6 1.1-.8 1.7-.5.6.4.6 1-.1 1.7zM638 1028c0 .5-.5 1-1.1 1-.5 0-.7-.5-.4-1 .3-.6.8-1 1.1-1 .2 0 .4.4.4 1zm766 .4c0 1.1-1.9 1.5-2.5.6-.3-.5.1-1 .9-1 .9 0 1.6.2 1.6.4zm-765 5.6c0 .5-.9 1-2 1s-2-.5-2-1c0-.6.9-1 2-1s2 .4 2 1zm789 0c0 .5-.2 1-.4 1-.3 0-.8-.5-1.1-1-.3-.6-.1-1 .4-1 .6 0 1.1.4 1.1 1zm-845.5 2c-.3.5-1.1 1-1.6 1-.6 0-.7-.5-.4-1 .3-.6 1.1-1 1.6-1 .6 0 .7.4.4 1zm59.2 3.7c.6 1.7-3.8 2.8-4.8 1.2-.4-.7-.5-1.7-.2-2.2.7-1.2 4.6-.4 5 1zm-31.2 1.2c.3.5.1 1.2-.5 1.6-.5.3-1-.1-1-.9 0-1.8.6-2.1 1.5-.7zm-43 2.1c1.1 1.8-.3 4-2 3.4-.9-.4-1.3-.9-1.1-1.2.3-.3.1-1.1-.5-1.9-.9-1-.7-1.3.9-1.3 1.2 0 2.4.5 2.7 1zm998.3 5.2c-.5 1.6-4.8 2.4-4.8.9 0-.8 1.7-1.6 4.3-2 .5 0 .7.5.5 1.1zm-870.7.8c2.8 1.6 2.3 3-.6 1.7-1.4-.7-2.5-1.5-2.5-2 0-1 .8-.9 3.1.3zm577.4 0c.3.5.1 1-.4 1-.6 0-1.1-.5-1.1-1 0-.6.2-1 .4-1 .3 0 .8.4 1.1 1zm-569.5 3.1c0 .5-1.2.9-2.7.9-2.7-.1-2.7-.1-.9-1.5 1.9-1.4 3.6-1.2 3.6.6zm-162.6 3.1c.9 1.2 1.6 3 1.6 4 0 2.6-2.7 2.2-3.3-.5-.2-1.2-.8-3-1.2-4-1-2.5 1.1-2.1 2.9.5zm524.4 3c1.9 1.9 1.4 2.8-1.2 2.8-2.7 0-4.1-1.4-3.1-3 .8-1.4 2.8-1.3 4.3.2z"/></svg>